<?xml version="1.0" encoding="UTF-8" standalone="no"?>
<!-- Created with Inkscape (http://www.inkscape.org/) -->

<svg
   id="svg5"
   version="1.1"
   viewBox="0 0 124.06456 114.86705"
   height="114.86705mm"
   width="124.06456mm"
   sodipodi:docname="ロゴアイコン.svg"
   inkscape:version="1.1.1 (3bf5ae0d25, 2021-09-20)"
   inkscape:export-filename="E:\portfolio_site\images_v2\ロゴアイコン.png"
   inkscape:export-xdpi="96"
   inkscape:export-ydpi="96"
   xmlns:inkscape="http://www.inkscape.org/namespaces/inkscape"
   xmlns:sodipodi="http://sodipodi.sourceforge.net/DTD/sodipodi-0.dtd"
   xmlns="http://www.w3.org/2000/svg"
   xmlns:svg="http://www.w3.org/2000/svg">
  <sodipodi:namedview
     id="namedview7"
     pagecolor="#ffffff"
     bordercolor="#666666"
     borderopacity="1.0"
     inkscape:pageshadow="2"
     inkscape:pageopacity="0.0"
     inkscape:pagecheckerboard="0"
     inkscape:document-units="mm"
     showgrid="false"
     inkscape:zoom="1.3808888"
     inkscape:cx="191.5433"
     inkscape:cy="187.19827"
     inkscape:window-width="1920"
     inkscape:window-height="1017"
     inkscape:window-x="-8"
     inkscape:window-y="-8"
     inkscape:window-maximized="1"
     inkscape:current-layer="layer1"
     width="209mm"
     fit-margin-top="0"
     fit-margin-left="0"
     fit-margin-right="0"
     fit-margin-bottom="0" />
  <defs
     id="defs2">
    <inkscape:path-effect
       effect="fillet_chamfer"
       id="path-effect3957"
       is_visible="true"
       lpeversion="1"
       satellites_param="F,0,0,1,0,7.9375,0,1 @ F,0,0,1,0,7.9375,0,1 @ F,0,0,1,0,7.9375,0,1 @ F,0,0,1,0,7.9375,0,1 @ F,0,0,1,0,7.9375,0,1 @ F,0,0,1,0,7.9375,0,1"
       unit="px"
       method="auto"
       mode="F"
       radius="30"
       chamfer_steps="1"
       flexible="false"
       use_knot_distance="true"
       apply_no_radius="true"
       apply_with_radius="true"
       only_selected="false"
       hide_knots="false" />
    <inkscape:path-effect
       effect="gears"
       id="path-effect1860"
       is_visible="true"
       lpeversion="1"
       teeth="30"
       phi="24.8"
       min_radius="0.01" />
    <inkscape:path-effect
       effect="gears"
       id="path-effect1663"
       is_visible="true"
       lpeversion="1"
       teeth="10"
       phi="5"
       min_radius="5" />
    <inkscape:path-effect
       effect="gears"
       id="path-effect1527"
       is_visible="true"
       lpeversion="1"
       teeth="15"
       phi="5"
       min_radius="11.5" />
    <inkscape:path-effect
       effect="gears"
       id="path-effect681"
       is_visible="true"
       lpeversion="1"
       teeth="32"
       phi="2"
       min_radius="3.3" />
    <inkscape:path-effect
       effect="gears"
       id="path-effect531"
       is_visible="true"
       lpeversion="1"
       teeth="13"
       phi="5.2"
       min_radius="10" />
    <inkscape:path-effect
       effect="gears"
       id="path-effect296"
       is_visible="true"
       lpeversion="1"
       teeth="7"
       phi="5"
       min_radius="5" />
  </defs>
  <g
     inkscape:label="Layer 1"
     inkscape:groupmode="layer"
     id="layer1"
     transform="translate(-43.821,-51.715188)">
    <path
       style="fill:none;stroke:#000000;stroke-width:0.264583px;stroke-linecap:butt;stroke-linejoin:miter;stroke-opacity:1"
       d=""
       id="path214"
       inkscape:path-effect="#path-effect296"
       inkscape:original-d="m 43.55048,59.25721 94.24038,-1.070912" />
    <path
       style="fill:none;stroke:#000000;stroke-width:0.264583px;stroke-linecap:butt;stroke-linejoin:miter;stroke-opacity:1"
       d=""
       id="path449"
       inkscape:path-effect="#path-effect531"
       inkscape:original-d="M 31.770433,62.112979 129.9375,61.042068" />
    <path
       style="fill:none;stroke:#000000;stroke-width:0.264583px;stroke-linecap:butt;stroke-linejoin:miter;stroke-opacity:1"
       d=""
       id="path1445"
       inkscape:path-effect="#path-effect1527"
       inkscape:original-d="m 57.976928,69.078892 72.368362,1.850327" />
    <path
       style="fill:none;stroke:#000000;stroke-width:0.264583px;stroke-linecap:butt;stroke-linejoin:miter;stroke-opacity:1"
       d=""
       id="path1581"
       inkscape:path-effect="#path-effect1663"
       inkscape:original-d="m 42.536009,87.332385 96.784831,5.342686" />
    <circle
       style="fill:#ff0000;fill-opacity:0;stroke-width:0;stroke-miterlimit:4;stroke-dasharray:none"
       id="path2756"
       cx="49.625343"
       cy="77.366219"
       r="24.966787" />
    <g
       id="g11507">
      <path
         id="path1778"
         style="fill:#ff4c6b;fill-opacity:1;stroke:#000000;stroke-width:0;stroke-linecap:butt;stroke-linejoin:miter;stroke-miterlimit:4;stroke-dasharray:none;stroke-opacity:1"
         d="m 385.86328,195.45898 c -1.19607,0.0902 -2.39057,0.20603 -3.58203,0.34375 -3.51674,7.13201 -4.60164,12.59534 -4.94531,15.63868 -2.01899,0.36488 -4.02741,0.78262 -6.02539,1.25 -1.20179,-2.75187 -4.02871,-7.42626 -9.75586,-12.68946 -1.15121,0.3369 -2.29683,0.69568 -3.4336,1.07813 -1.95707,7.70732 -1.88251,13.27789 -1.58593,16.32617 -1.899,0.77667 -3.77762,1.60204 -5.63477,2.47461 -1.74768,-2.44187 -5.48536,-6.42537 -12.18164,-10.38281 -1.056,0.56887 -2.1004,1.15909 -3.13281,1.76953 -0.31186,7.94579 0.91986,13.37882 1.84375,16.29883 -1.69603,1.15452 -3.3629,2.35217 -4.99805,3.59179 -2.21718,-2.02514 -6.69953,-5.14432 -14.07226,-7.62304 -0.91466,0.776 -1.81434,1.5691 -2.69727,2.38086 1.34699,7.837 3.68061,12.89643 5.19141,15.56054 -1.41893,1.48193 -2.79894,3.00024 -4.14063,4.55274 -2.58978,-1.51992 -7.62457,-3.63957 -15.35156,-4.53125 -0.73332,0.94921 -1.44771,1.91304 -2.14258,2.89062 2.94695,7.38569 6.28082,11.84885 8.3125,14.14063 -1.07981,1.74454 -2.11393,3.51497 -3.10352,5.3125 -2.84919,-0.94825 -8.21545,-1.97457 -15.95898,-1.24024 -0.51995,1.08094 -1.01771,2.17275 -1.49414,3.27344 4.41813,6.61159 8.60849,10.28423 11.07227,12.10352 -0.69351,1.93093 -1.33741,3.8778 -1.93165,5.84179 -2.98408,-0.33515 -8.44554,-0.22279 -15.86718,2.10547 -0.28385,1.16542 -0.54409,2.33602 -0.78125,3.51172 5.71981,5.39958 10.59837,7.9676 13.41015,9.08594 l -0.0645,0.45312 c -0.27688,2.03292 -0.50091,4.07257 -0.67383,6.11719 -2.98856,0.2926 -8.3086,1.537 -15.08398,5.35742 -0.0354,1.19897 -0.0457,2.39834 -0.0332,3.59766 6.72534,4.24297 12.04637,5.89283 15.03711,6.55273 0.15184,2.04607 0.35538,4.08911 0.61133,6.125 -2.86242,0.90756 -7.80565,3.22938 -13.63867,8.375 0.21471,1.18011 0.45135,2.35683 0.71289,3.52735 7.46053,2.75197 13.00968,3.25939 16.07227,3.2832 0.57392,1.96978 1.19743,3.92509 1.87109,5.86328 -2.61117,1.48286 -6.96389,4.78337 -11.59961,11.0293 0.45538,1.10968 0.93246,2.21021 1.43164,3.30078 7.86967,1.14071 13.40177,0.48273 16.40235,-0.13086 0.97091,1.80741 1.98887,3.58993 3.05078,5.3457 -2.24581,1.99335 -5.81693,6.1279 -9.05274,13.20117 0.67614,0.99073 1.37092,1.96674 2.08594,2.92969 7.93486,-0.5204 13.21014,-2.31307 16.01758,-3.53711 1.32548,1.56605 2.69195,3.09909 4.0957,4.59571 -1.78229,2.4167 -4.41684,7.20152 -6.11133,14.79296 0.86736,0.82855 1.7508,1.64035 2.65039,2.4336 7.65327,-2.15879 12.44005,-5.01003 14.93164,-6.79102 1.62212,1.25624 3.2767,2.4725 4.96094,3.64453 -1.24088,2.73449 -2.82324,7.96239 -2.90234,15.74024 1.02066,0.63008 2.05475,1.23927 3.09961,1.82812 7.03719,-3.7028 11.1265,-7.48597 13.19336,-9.74609 1.84786,0.89155 3.71825,1.73693 5.60937,2.5332 -0.64524,2.93269 -1.10418,8.37567 0.43555,16 1.12936,0.40415 2.26569,0.78586 3.41015,1.14453 6.11355,-5.08501 9.32712,-9.63692 10.87891,-12.27734 1.99284,0.48786 3.99832,0.92485 6.01367,1.31055 -0.0214,3.00276 0.66067,8.42294 3.75196,15.56054 1.18869,0.16041 2.38015,0.29715 3.57421,0.41016 4.92273,-6.24499 7.12097,-11.36413 8.08985,-14.26953 2.05073,0.0605 4.10281,0.0709 6.1543,0.0293 0.60339,2.9416 2.39656,8.10245 6.90429,14.4414 1.19607,-0.0903 2.39057,-0.20384 3.58203,-0.3418 3.51674,-7.13199 4.60176,-12.59731 4.94532,-15.64062 2.01898,-0.36488 4.02741,-0.78067 6.02539,-1.24805 1.20177,2.75188 4.03065,7.42624 9.75781,12.68946 1.15117,-0.33691 2.29487,-0.69763 3.43164,-1.08008 1.95715,-7.70733 1.88263,-13.27791 1.58594,-16.32617 1.89898,-0.7767 3.77762,-1.60203 5.63476,-2.47461 1.74769,2.44187 5.48538,6.42534 12.18164,10.38281 1.056,-0.5689 2.1004,-1.15711 3.13282,-1.76758 0.31184,-7.94578 -0.91985,-13.38075 -1.84375,-16.30078 1.69602,-1.15453 3.36291,-2.35219 4.99804,-3.5918 2.21719,2.02515 6.70146,5.14628 14.07422,7.625 0.91465,-0.77601 1.81238,-1.57104 2.69531,-2.38281 -1.34698,-7.837 -3.68061,-12.89643 -5.1914,-15.56055 1.41895,-1.48195 2.80088,-2.99826 4.14258,-4.55078 2.58977,1.51994 7.62264,3.63763 15.3496,4.5293 0.73335,-0.94919 1.44772,-1.9111 2.14258,-2.88867 -2.94693,-7.3857 -6.28081,-11.84885 -8.3125,-14.14063 1.07981,-1.74454 2.11396,-3.51692 3.10352,-5.31445 2.8492,0.94825 8.21545,1.97457 15.95898,1.24023 0.51995,-1.08093 1.0177,-2.17274 1.49414,-3.27343 -4.41815,-6.61159 -8.6085,-10.28228 -11.07226,-12.10157 0.6935,-1.93093 1.33937,-3.87975 1.93359,-5.84375 2.98409,0.33516 8.44556,0.22279 15.86719,-2.10547 0.28384,-1.1654 0.5439,-2.33602 0.78125,-3.51171 -5.6962,-5.54853 -10.55946,-8.26983 -13.34766,-9.53711 0.27689,-2.03292 0.50306,-4.07257 0.67578,-6.11719 2.98855,-0.2926 8.30667,-1.537 15.08204,-5.35742 0.035,-1.19897 0.0465,-2.39834 0.0352,-3.59766 -6.72533,-4.24297 -12.04637,-5.89284 -15.03711,-6.55273 -0.15186,-2.04607 -0.3574,-4.08911 -0.61328,-6.125 2.86243,-0.90756 7.80761,-3.22938 13.64063,-8.375 -0.21472,-1.18012 -0.4533,-2.35683 -0.71485,-3.52735 -7.46056,-2.75197 -13.00967,-3.25939 -16.07226,-3.2832 -0.57392,-1.96978 -1.19743,-3.92509 -1.8711,-5.86328 2.61117,-1.48286 6.96387,-4.78337 11.59961,-11.0293 -0.45539,-1.10968 -0.93244,-2.21022 -1.43164,-3.30078 -7.86965,-1.14071 -13.40177,-0.48273 -16.40234,0.13086 -0.97092,-1.80742 -1.98885,-3.58993 -3.05078,-5.3457 2.24583,-1.99335 5.81888,-6.12793 9.05468,-13.20117 -0.67612,-0.99076 -1.37288,-1.96674 -2.08789,-2.92969 -7.93485,0.52042 -13.21014,2.31306 -16.01757,3.53711 -1.32552,-1.56605 -2.69,-3.09909 -4.09375,-4.59571 1.78231,-2.41672 4.4149,-7.20151 6.10937,-14.79297 -0.86733,-0.82851 -1.75079,-1.64034 -2.65039,-2.43359 -7.65328,2.1588 -12.44002,5.01002 -14.93164,6.79102 -1.6221,-1.25625 -3.27671,-2.47248 -4.96094,-3.64453 1.24086,-2.73447 2.82335,-7.96237 2.90235,-15.74024 -1.02067,-0.63009 -2.05281,-1.23925 -3.09766,-1.82812 -7.03718,3.70282 -11.12844,7.48598 -13.19531,9.74609 -1.84785,-0.89154 -3.71825,-1.73693 -5.60938,-2.5332 0.64524,-2.93271 1.10615,-8.37565 -0.43359,-16 -1.12936,-0.40411 -2.26763,-0.78578 -3.41211,-1.14453 -6.11354,5.08502 -9.32715,9.6369 -10.87891,12.27734 -1.99287,-0.48786 -3.99831,-0.92486 -6.01367,-1.31055 0.0214,-3.00277 -0.66068,-8.42293 -3.75195,-15.56054 -1.1887,-0.16047 -2.38016,-0.29719 -3.57422,-0.41016 -4.92272,6.24498 -7.11901,11.36415 -8.08789,14.26953 -2.05074,-0.0631 -4.10281,-0.073 -6.1543,-0.0312 -0.6034,-2.9416 -2.39852,-8.10248 -6.90625,-14.44141 z m 9.45117,31.32227 a 86.596191,86.596191 0 0 1 1.60547,0.14063 h -3.21484 a 86.596191,86.596191 0 0 1 1.60937,-0.14063 z m -20.49804,2.77734 a 4.1383536,3.3745853 0 0 0 0.4414,2.42579 l 12.20899,17.24218 5.03906,7.11914 a 4.1383536,3.3745853 0 0 0 3.77344,1.6836 4.1383536,3.3745853 0 0 0 3.39453,-1.6836 l 12.20898,-17.24218 5.03907,-7.11914 a 4.1383536,3.3745853 0 0 0 0.15624,-0.24024 4.1383536,3.3745853 0 0 0 0.13086,-0.25 4.1383536,3.3745853 0 0 0 0.10547,-0.25781 4.1383536,3.3745853 0 0 0 0.0801,-0.26367 4.1383536,3.3745853 0 0 0 0.0527,-0.26954 4.1383536,3.3745853 0 0 0 0.0273,-0.26953 4.1383536,3.3745853 0 0 0 0,-0.27343 4.1383536,3.3745853 0 0 0 -0.0156,-0.15821 86.596191,86.596191 0 0 1 51.57618,38.25977 4.1383536,3.3745853 72 0 0 -1.00586,0.85351 l -12.625,16.94141 -5.21289,6.99219 a 4.1383536,3.3745853 72 0 0 -0.43555,4.10742 4.1383536,3.3745853 72 0 0 2.65039,2.70898 l 20.16992,6.28321 8.32813,2.59179 a 4.1383536,3.3745853 72 0 0 0.61132,0.125 86.596191,86.596191 0 0 1 0.39454,4.51172 86.596191,86.596191 0 0 1 -20.19922,55.57617 3.3745853,4.1383536 54 0 0 -0.32813,-0.13281 l -20.01172,-6.77148 -8.26171,-2.79883 a 3.3745853,4.1383536 54 0 0 -4.04102,0.85742 3.3745853,4.1383536 54 0 0 -1.75781,3.35547 l 0.25781,21.12695 0.10742,8.72071 a 3.3745853,4.1383536 54 0 0 0.01,0.15625 86.596191,86.596191 0 0 1 -32.3711,6.50586 86.596191,86.596191 0 0 1 -30.93164,-5.83594 4.1383536,3.3745853 36 0 0 0.1211,-0.82617 l 0.25781,-21.125 0.10742,-8.72266 a 4.1383536,3.3745853 36 0 0 -2.0625,-3.58008 4.1383536,3.3745853 36 0 0 -3.73633,-0.63281 l -20.01172,6.77344 -8.26171,2.79687 a 4.1383536,3.3745853 36 0 0 -1.23438,0.80664 86.596191,86.596191 0 0 1 -20.8457,-56.25 86.596191,86.596191 0 0 1 0.41797,-4.77929 3.3745853,4.1383536 18 0 0 2.14257,0.14257 l 20.16993,-6.2832 8.32812,-2.5918 a 3.3745853,4.1383536 18 0 0 2.76758,-3.06835 3.3745853,4.1383536 18 0 0 -0.55274,-3.74805 l -12.625,-16.93945 -5.21484,-6.99415 a 3.3745853,4.1383536 18 0 0 -2.33203,-1.17968 86.596191,86.596191 0 0 1 52.99805,-38.37696 z m 21.27343,3.58789 a 6.2131793,6.2131793 0 0 1 6.21289,6.2129 6.2131793,6.2131793 0 0 1 -6.21289,6.21289 6.2131793,6.2131793 0 0 1 -6.21289,-6.21289 6.2131793,6.2131793 0 0 1 6.21289,-6.2129 z m -81.7207,49.68946 -1.04297,3.21289 a 86.596191,86.596191 0 0 1 1.04297,-3.21289 z m 10.68359,2.16797 a 6.2131793,6.2131793 0 0 1 1.59571,0.29492 6.2131793,6.2131793 0 0 1 3.98828,7.82812 6.2131793,6.2131793 0 0 1 -7.82813,3.99024 6.2131793,6.2131793 0 0 1 -3.99023,-7.83008 6.2131793,6.2131793 0 0 1 6.23437,-4.2832 z m 142.07618,0 a 6.2131793,6.2131793 0 0 1 6.23242,4.2832 6.2131793,6.2131793 0 0 1 -3.98828,7.83008 6.2131793,6.2131793 0 0 1 -7.82813,-3.99024 6.2131793,6.2131793 0 0 1 3.98828,-7.82812 6.2131793,6.2131793 0 0 1 1.59571,-0.29492 z m -115.30469,83.88476 a 6.2131793,6.2131793 0 0 1 3.81445,1.1836 6.2131793,6.2131793 0 0 1 1.37305,8.67968 6.2131793,6.2131793 0 0 1 -8.67774,1.37305 6.2131793,6.2131793 0 0 1 -1.375,-8.67773 6.2131793,6.2131793 0 0 1 4.86524,-2.5586 z m 88.5332,0 a 6.2131793,6.2131793 0 0 1 4.86328,2.5586 6.2131793,6.2131793 0 0 1 -1.37304,8.67773 6.2131793,6.2131793 0 0 1 -8.67969,-1.37305 6.2131793,6.2131793 0 0 1 1.375,-8.67968 6.2131793,6.2131793 0 0 1 3.81445,-1.1836 z"
         transform="scale(0.26458333)" />
      <path
         id="path8968"
         style="fill:#4cb4ff;fill-opacity:1;stroke:#000000;stroke-width:0;stroke-linecap:butt;stroke-linejoin:miter;stroke-miterlimit:4;stroke-dasharray:none;stroke-opacity:1"
         d="m 147.93754,105.42302 c -0.29526,-0.11637 -0.59308,-0.22645 -0.89271,-0.33097 -1.65955,1.29326 -2.54759,2.46937 -2.9802,3.15457 -0.52288,-0.14583 -1.04938,-0.27778 -1.57909,-0.39675 0.031,-0.79389 -0.10359,-2.23296 -0.86097,-4.14653 -0.313,-0.0524 -0.62719,-0.099 -0.942,-0.13896 -1.35439,1.61002 -1.97867,2.94531 -2.25935,3.70548 -0.54179,-0.0339 -1.08433,-0.0538 -1.62721,-0.0601 -0.13478,-0.78298 -0.56585,-2.16248 -1.70454,-3.87676 -0.31704,0.0141 -0.63383,0.0339 -0.95005,0.0603 -0.99004,1.85644 -1.32289,3.29233 -1.4394,4.09426 -0.53698,0.0795 -1.072,0.17262 -1.6043,0.27937 -0.29465,-0.73784 -1.00267,-1.99732 -2.47291,-3.43738 -0.30726,0.0794 -0.61294,0.16458 -0.91678,0.25615 -0.58244,2.02172 -0.60977,3.49564 -0.557,4.30426 -0.50873,0.1894 -1.01239,0.39195 -1.51086,0.60707 -0.44161,-0.66047 -1.39641,-1.74557 -3.13392,-2.84849 -0.28404,0.14155 -0.56527,0.28876 -0.84343,0.44149 -0.14937,2.09864 0.13024,3.54582 0.34996,4.3258 -0.45823,0.29104 -0.90856,0.5935 -1.35141,0.90754 -0.56929,-0.55421 -1.72904,-1.41712 -3.65788,-2.1347 -0.24841,0.19752 -0.4928,0.40017 -0.73312,0.60741 0.29022,2.08383 0.86492,3.44147 1.24202,4.15871 -0.38772,0.37994 -0.76545,0.76941 -1.13334,1.16866 -0.67205,-0.42377 -1.98574,-1.02639 -4.02161,-1.32731 -0.20192,0.24485 -0.39882,0.49366 -0.5908,0.74633 0.73991,1.9452 1.60584,3.11907 2.1466,3.70948 l -0.0676,0.10049 c -0.30028,0.45223 -0.58869,0.91219 -0.86552,1.37921 -0.74548,-0.27477 -2.15593,-0.59154 -4.20988,-0.46255 -0.14629,0.28163 -0.28731,0.56593 -0.42275,0.85291 1.11271,1.78563 2.18981,2.79183 2.82603,3.29368 -0.19963,0.50481 -0.38667,1.01483 -0.56032,1.5292 -0.78632,-0.11375 -2.2312,-0.13051 -4.21346,0.42271 -0.0849,0.3058 -0.16414,0.61332 -0.23675,0.92224 1.45964,1.51527 2.72275,2.27567 3.4494,2.63431 -0.0903,0.53527 -0.1672,1.07283 -0.23015,1.61206 -0.7928,0.0519 -2.20983,0.33661 -4.03374,1.28987 -0.0195,0.31677 -0.0326,0.63385 -0.0395,0.95112 1.74279,1.17868 3.13616,1.65956 3.92149,1.85928 0.023,0.54236 0.0599,1.08419 0.11062,1.62474 -0.76462,0.2159 -2.09164,0.78901 -3.67751,2.10065 0.0469,0.31388 0.0999,0.62641 0.15915,0.93815 1.94976,0.79059 3.41274,0.97164 4.22243,1.00369 0.13515,0.52573 0.28395,1.04833 0.44578,1.56655 -0.70302,0.37015 -1.88192,1.20608 -3.16043,2.81877 0.11105,0.2973 0.22792,0.59245 0.35075,0.88506 2.07152,0.36792 3.54016,0.24056 4.33882,0.10355 0.24155,0.48615 0.49542,0.96652 0.76148,1.43977 -0.6107,0.50823 -1.59009,1.57094 -2.50534,3.41421 0.17045,0.2677 0.34653,0.53196 0.5275,0.79263 2.10275,-0.0708 3.51269,-0.50051 4.26542,-0.80057 0.33735,0.42531 0.68536,0.84221 1.04399,1.24981 -0.49168,0.62409 -1.2283,1.8675 -1.74033,3.86078 0.22239,0.22642 0.44902,0.4483 0.68025,0.66563 2.04208,-0.50646 3.33206,-1.22017 4.00595,-1.67017 0.41839,0.34587 0.84565,0.68108 1.28118,1.00522 -0.35148,0.71253 -0.81343,2.08217 -0.89983,4.13835 0.26464,0.17516 0.53262,0.34507 0.80397,0.50962 1.89216,-0.91995 3.00569,-1.88579 3.57129,-2.46608 0.48144,0.25076 0.96896,0.4898 1.46225,0.71651 -0.19533,0.77012 -0.36307,2.2059 -0.0201,4.23513 0.29528,0.11634 0.59283,0.227 0.89248,0.33147 1.65956,-1.29326 2.54785,-2.46983 2.98043,-3.15504 0.52288,0.14583 1.04915,0.27825 1.57886,0.39721 -0.031,0.7939 0.10401,2.23319 0.86144,4.14677 0.31297,0.0524 0.62694,0.0983 0.94176,0.13828 1.35441,-1.61003 1.9787,-2.94533 2.25935,-3.70549 0.54178,0.0338 1.08432,0.0538 1.6272,0.0601 0.13478,0.78298 0.56586,2.16247 1.70455,3.87675 0.31703,-0.0141 0.63359,-0.0335 0.9498,-0.0603 0.99004,-1.85644 1.3231,-3.29279 1.4396,-4.09471 0.537,-0.0795 1.07201,-0.17263 1.60431,-0.27939 0.29465,0.73785 1.00291,1.99802 2.47313,3.43807 0.30729,-0.0794 0.61271,-0.16527 0.91656,-0.25684 0.58243,-2.02173 0.60978,-3.49564 0.55701,-4.30425 0.50874,-0.18941 1.01262,-0.39127 1.51109,-0.60638 0.44161,0.66047 1.39617,1.74488 3.13368,2.8478 0.28405,-0.14154 0.56505,-0.2883 0.84321,-0.44103 0.14938,-2.09863 -0.13023,-3.54583 -0.34996,-4.3258 0.45824,-0.29104 0.9088,-0.59396 1.35165,-0.90802 0.56928,0.55422 1.72903,1.41713 3.65787,2.13471 0.24842,-0.19752 0.49279,-0.40017 0.73312,-0.6074 -0.29022,-2.08384 -0.86514,-3.44101 -1.24223,-4.15825 0.38771,-0.37994 0.76613,-0.76965 1.13401,-1.16891 0.67206,0.42377 1.98571,1.0265 4.02162,1.32731 0.20192,-0.24484 0.39877,-0.49366 0.5908,-0.74631 -0.71713,-1.97796 -1.56173,-3.18657 -2.07972,-3.80974 0.30028,-0.45224 0.58919,-0.91196 0.86597,-1.37899 0.74548,0.27476 2.15548,0.59131 4.20943,0.46232 0.14629,-0.28164 0.28748,-0.56583 0.42274,-0.8529 -1.1127,-1.78563 -2.18982,-2.79184 -2.82604,-3.2937 0.19962,-0.5048 0.38613,-1.01508 0.55987,-1.52942 0.78632,0.11376 2.23167,0.13074 4.21392,-0.42248 0.0849,-0.30581 0.16368,-0.61354 0.23628,-0.92246 -1.45964,-1.51527 -2.72275,-2.27567 -3.4494,-2.63432 0.0903,-0.53527 0.16721,-1.07281 0.23014,-1.61206 0.79281,-0.0519 2.20983,-0.3366 4.03375,-1.28986 0.0195,-0.31676 0.0326,-0.63385 0.0395,-0.95111 -1.74278,-1.17868 -3.13616,-1.65958 -3.92148,-1.85929 -0.023,-0.54235 -0.0599,-1.0842 -0.11062,-1.62474 0.76461,-0.2159 2.0921,-0.7888 3.67796,-2.10043 -0.0469,-0.31389 -0.1003,-0.62663 -0.15956,-0.93838 -1.94976,-0.79057 -3.41273,-0.97163 -4.22243,-1.00368 -0.13515,-0.52574 -0.28348,-1.0481 -0.44531,-1.56634 0.70301,-0.37015 1.88146,-1.20629 3.15997,-2.81899 -0.11105,-0.29728 -0.22792,-0.59244 -0.35075,-0.88505 -2.07152,-0.36792 -3.54016,-0.24057 -4.33883,-0.10356 -0.24154,-0.48615 -0.49543,-0.96651 -0.76147,-1.43976 0.61069,-0.50822 1.59011,-1.57093 2.50535,-3.41421 -0.17047,-0.2677 -0.34607,-0.53174 -0.52705,-0.79241 -2.10274,0.0708 -3.51315,0.50029 -4.26589,0.80034 -0.33733,-0.42529 -0.68536,-0.8422 -1.04398,-1.24981 0.49168,-0.62409 1.22877,-1.86727 1.74079,-3.86055 -0.22239,-0.22642 -0.4495,-0.4485 -0.68072,-0.66585 -2.04208,0.50646 -3.33205,1.22016 -4.00594,1.67017 -0.4184,-0.34588 -0.84566,-0.68109 -1.28119,-1.00522 0.35149,-0.71253 0.81342,-2.08217 0.89983,-4.13836 -0.2646,-0.17521 -0.53261,-0.3451 -0.80396,-0.50961 -1.89216,0.91995 -3.00524,1.88602 -3.57084,2.4663 -0.48113,-0.25139 -0.96872,-0.49025 -1.46223,-0.71651 0.19531,-0.77013 0.3626,-2.20614 0.0196,-4.23536 z m -1.35909,8.54905 a 22.911909,22.911909 0 0 1 0.36615,0.21852 l -0.76564,-0.37052 a 22.911909,22.911909 0 0 1 0.39949,0.152 z m -5.20194,-1.70102 a 1.0949394,0.89285902 25.82367 0 0 -0.17446,0.62861 l 0.92051,5.51356 0.3796,2.27628 a 1.0949394,0.89285902 25.82367 0 0 0.70465,0.83586 1.0949394,0.89285902 25.82367 0 0 1.00249,-0.01 l 4.89493,-2.69931 2.02062,-1.11474 a 1.0949394,0.89285902 25.82367 0 0 0.0649,-0.0392 1.0949394,0.89285902 25.82367 0 0 0.0599,-0.0445 1.0949394,0.89285902 25.82367 0 0 0.0549,-0.0492 1.0949394,0.89285902 25.82367 0 0 0.0495,-0.0536 1.0949394,0.89285902 25.82367 0 0 0.0437,-0.058 1.0949394,0.89285902 25.82367 0 0 0.0374,-0.0611 1.0949394,0.89285902 25.82367 0 0 0.0315,-0.0652 1.0949394,0.89285902 25.82367 0 0 0.0147,-0.0395 22.911909,22.911909 0 0 1 7.8739,15.05634 0.89285902,1.0949394 7.8236703 0 0 -0.33792,0.0873 l -4.95934,2.57973 -2.04739,1.06447 a 0.89285902,1.0949394 7.8236703 0 0 -0.57713,0.92803 0.89285902,1.0949394 7.8236703 0 0 0.319,0.95065 l 4.07955,3.82107 1.68473,1.5771 a 0.89285902,1.0949394 7.8236703 0 0 0.13118,0.10025 22.911909,22.911909 0 0 1 -0.42604,1.12 22.911909,22.911909 0 0 1 -11.21601,10.90809 0.89285902,1.0949394 79.82367 0 0 -0.0628,-0.0694 l -3.98559,-3.91912 -1.64505,-1.61877 a 0.89285902,1.0949394 79.82367 0 0 -1.06124,-0.26153 0.89285902,1.0949394 79.82367 0 0 -0.80537,0.59655 l -2.37356,5.06135 -0.97953,2.0893 a 0.89285902,1.0949394 79.82367 0 0 -0.0152,0.0385 22.911909,22.911909 0 0 1 -8.45938,-2.18143 22.911909,22.911909 0 0 1 -6.69411,-4.95488 1.0949394,0.89285902 61.82367 0 0 0.12401,-0.18281 l 2.49612,-5.00146 1.03088,-2.06504 a 1.0949394,0.89285902 61.82367 0 0 -0.0786,-1.09034 1.0949394,0.89285902 61.82367 0 0 -0.81692,-0.58134 l -5.54668,-0.69323 -2.28998,-0.28609 a 1.0949394,0.89285902 61.82367 0 0 -0.38696,0.0498 22.911909,22.911909 0 0 1 1.51835,-15.79913 22.911909,22.911909 0 0 1 0.65039,-1.09008 0.89285902,1.0949394 43.82367 0 0 0.49384,0.28087 l 5.52787,0.82824 2.28215,0.34257 a 0.89285902,1.0949394 43.82367 0 0 1.01278,-0.41178 0.89285902,1.0949394 43.82367 0 0 0.30033,-0.95636 l -1.05447,-5.4894 -0.43587,-2.26676 a 0.89285902,1.0949394 43.82367 0 0 -0.41944,-0.54974 22.911909,22.911909 0 0 1 17.04518,-3.03172 z m 4.653,3.30634 a 1.6439037,1.6439037 0 0 1 0.76362,2.19573 1.6439037,1.6439037 0 0 1 -2.19573,0.76362 1.6439037,1.6439037 0 0 1 -0.76362,-2.19574 1.6439037,1.6439037 0 0 1 2.19573,-0.76361 z m -25.18962,2.41555 -0.61869,0.64498 a 22.911909,22.911909 0 0 1 0.61869,-0.64498 z m 2.29455,1.74764 a 1.6439037,1.6439037 0 0 1 0.34607,0.25412 1.6439037,1.6439037 0 0 1 0.0476,2.32402 1.6439037,1.6439037 0 0 1 -2.32425,0.0481 1.6439037,1.6439037 0 0 1 -0.0479,-2.3247 1.6439037,1.6439037 0 0 1 1.97845,-0.30158 z m 33.83711,16.37475 a 1.6439037,1.6439037 0 0 1 0.99069,1.7384 1.6439037,1.6439037 0 0 1 -1.85231,1.40516 1.6439037,1.6439037 0 0 1 -1.40447,-1.85253 1.6439037,1.6439037 0 0 1 1.85207,-1.4047 1.6439037,1.6439037 0 0 1 0.41402,0.1137 z m -37.12915,6.68889 a 1.6439037,1.6439037 0 0 1 0.77204,0.72152 1.6439037,1.6439037 0 0 1 -0.67335,2.22542 1.6439037,1.6439037 0 0 1 -2.22496,-0.67313 1.6439037,1.6439037 0 0 1 0.67267,-2.22518 1.6439037,1.6439037 0 0 1 1.4536,-0.0486 z m 21.08522,10.20375 a 1.6439037,1.6439037 0 0 1 0.86337,1.16987 1.6439037,1.6439037 0 0 1 -1.32715,1.90846 1.6439037,1.6439037 0 0 1 -1.90893,-1.32738 1.6439037,1.6439037 0 0 1 1.32784,-1.90869 1.6439037,1.6439037 0 0 1 1.04487,0.15774 z" />
      <path
         id="path8970"
         style="fill:#5eed61;fill-opacity:1;stroke:#000000;stroke-width:0;stroke-linecap:butt;stroke-linejoin:miter;stroke-miterlimit:4;stroke-dasharray:none;stroke-opacity:1"
         d="m 51.256713,115.00205 c -0.206872,0.24066 -0.408711,0.48579 -0.605881,0.73443 0.676374,1.99226 1.495526,3.21736 2.000604,3.85103 -0.309493,0.44597 -0.607063,0.8999 -0.89342,1.36114 -0.739684,-0.29 -2.143098,-0.63564 -4.199265,-0.54884 -0.152375,0.27838 -0.299554,0.55987 -0.440678,0.8441 1.0758,1.80809 2.131939,2.83633 2.757728,3.35114 -0.209977,0.50058 -0.407028,1.00647 -0.591228,1.51718 -0.78382,-0.12988 -2.228366,-0.17587 -4.221555,0.33654 -0.09114,0.30399 -0.176106,0.60981 -0.255053,0.91717 1.428222,1.54491 2.675121,2.33093 3.394273,2.70439 -0.101317,0.53329 -0.189101,1.06921 -0.2631,1.60705 -0.793685,0.0359 -2.215851,0.29096 -4.058947,1.20658 -0.02594,0.3163 -0.04588,0.633 -0.05919,0.95006 1.718219,1.21421 3.101375,1.72417 3.882454,1.93995 0.01178,0.54271 0.03766,1.08495 0.0771,1.62642 -0.768968,0.19984 -2.107391,0.74556 -3.719844,2.02437 0.04039,0.31477 0.08705,0.62875 0.13995,0.94165 1.93312,0.83044 3.391857,1.04172 4.200728,1.09038 0.12436,0.52841 0.262115,1.0531 0.413301,1.57453 -0.710456,0.35565 -1.906431,1.1676 -3.217774,2.75371 0.104955,0.29951 0.216092,0.5969 0.33289,0.89196 2.063533,0.41038 3.53461,0.31351 4.33592,0.19293 0.231512,0.49101 0.475285,0.97571 0.731552,1.45434 -0.621008,0.49556 -1.621715,1.53841 -2.574663,3.36247 0.164937,0.27114 0.335249,0.53883 0.510839,0.80316 2.080313,-0.0599 3.473478,-0.49219 4.208765,-0.809 l 0.07272,0.0968 c 0.328529,0.43213 0.668212,0.85564 1.018385,1.27051 -0.504394,0.61386 -1.266884,1.84201 -1.819724,3.82436 0.217661,0.23096 0.440152,0.45725 0.666857,0.6793 2.052045,-0.46443 3.356218,-1.15126 4.039212,-1.58733 0.411206,0.3544 0.831517,0.69854 1.260288,1.03154 -0.365725,0.70533 -0.856166,2.06453 -0.984768,4.11852 0.260957,0.18061 0.52538,0.35649 0.793304,0.52656 1.910637,-0.88093 3.043757,-1.82417 3.621187,-2.3927 0.475897,0.26115 0.958363,0.51031 1.447008,0.74689 -0.211095,0.76594 -0.407949,2.19778 -0.106697,4.23361 0.292803,0.12241 0.587962,0.23906 0.885381,0.34969 1.685747,-1.25889 2.597639,-2.41699 3.044229,-3.09315 0.51979,0.15649 1.043733,0.29954 1.570883,0.42935 -0.04723,0.7931 0.05818,2.23475 0.776126,4.16346 0.311851,0.0588 0.624441,0.11147 0.938368,0.15785 1.387161,-1.58189 2.038718,-2.90422 2.334955,-3.65846 0.540972,0.045 1.083439,0.0762 1.626066,0.0936 0.11869,0.78559 0.520978,2.17367 1.624233,3.91095 0.317283,-0.007 0.634447,-0.0207 0.951159,-0.0405 1.027952,-1.83573 1.390071,-3.26472 1.523018,-4.06406 0.538519,-0.0684 1.075607,-0.15047 1.609985,-0.24629 0.279438,0.74375 0.961478,2.01787 2.401821,3.48781 0.308744,-0.0734 0.616264,-0.1526 0.921964,-0.23773 0.623833,-2.00932 0.681102,-3.48218 0.644947,-4.29171 0.512506,-0.17894 1.020601,-0.37068 1.523381,-0.57552 0.427961,0.6694 1.360419,1.77358 3.074909,2.91194 0.286902,-0.13568 0.570907,-0.27687 0.852127,-0.42387 0.192428,-2.09512 -0.05796,-3.54796 -0.26163,-4.33227 0.464111,-0.28157 0.921069,-0.57502 1.370277,-0.87991 0.557751,0.56581 1.699442,1.45224 3.613151,2.20926 0.252373,-0.19241 0.500879,-0.38972 0.745429,-0.59197 -0.247378,-2.08934 -0.793847,-3.45834 -1.156143,-4.18318 0.394982,-0.37236 0.780884,-0.75429 1.157058,-1.14574 0.663227,0.43745 1.96425,1.06751 3.993541,1.41011 0.206871,-0.24067 0.409134,-0.48537 0.606234,-0.73409 -0.676369,-1.99224 -1.495871,-3.21774 -2.000964,-3.85138 0.309491,-0.44597 0.607422,-0.89954 0.893781,-1.36079 0.739689,0.29002 2.143453,0.63528 4.199633,0.54849 0.15236,-0.27838 0.29882,-0.55987 0.43995,-0.8441 -1.0758,-1.80811 -2.13193,-2.83636 -2.75773,-3.35115 0.20997,-0.50059 0.40703,-1.00647 0.59123,-1.51717 0.78382,0.12987 2.22836,0.17586 4.22156,-0.33654 0.0911,-0.30399 0.17648,-0.60944 0.25542,-0.91681 -1.42823,-1.54492 -2.67549,-2.3313 -3.39464,-2.70474 0.1013,-0.53331 0.18909,-1.06924 0.26309,-1.60706 0.79369,-0.0359 2.21658,-0.29096 4.05968,-1.20658 0.0259,-0.31631 0.0452,-0.633 0.0585,-0.95006 -1.71822,-1.21421 -3.10138,-1.72418 -3.88246,-1.93995 -0.0118,-0.54273 -0.0369,-1.08496 -0.0764,-1.62644 0.76897,-0.19983 2.10667,-0.74555 3.71912,-2.02435 -0.0404,-0.31479 -0.0867,-0.62839 -0.13958,-0.94129 -1.93313,-0.83045 -3.39186,-1.04172 -4.20073,-1.09037 -0.12436,-0.5284 -0.26247,-1.05348 -0.41361,-1.57492 0.71046,-0.35565 1.90643,-1.1676 3.21778,-2.75371 -0.10496,-0.2995 -0.2161,-0.5969 -0.33289,-0.89196 -2.06354,-0.41037 -3.53425,-0.31315 -4.335563,-0.19257 -0.231509,-0.491 -0.47527,-0.97643 -0.731546,-1.45505 0.621008,-0.49558 1.621719,-1.53842 2.574659,-3.36249 -0.16492,-0.27113 -0.33528,-0.53879 -0.51083,-0.80316 -2.103768,0.0276 -3.522753,0.42836 -4.281486,0.71291 -0.328537,-0.43214 -0.667812,-0.85605 -1.018029,-1.27089 0.504395,-0.61385 1.266533,-1.84163 1.819371,-3.82399 -0.21774,-0.23089 -0.440006,-0.4574 -0.666504,-0.67965 -2.052043,0.46443 -3.356226,1.15125 -4.039214,1.58733 -0.41121,-0.35439 -0.83189,-0.69816 -1.260659,-1.03118 0.365736,-0.70533 0.856534,-2.0649 0.985142,-4.11887 -0.260959,-0.18063 -0.525745,-0.35614 -0.793669,-0.5262 -1.910652,0.88092 -3.043756,1.82417 -3.621187,2.39269 -0.475896,-0.26114 -0.958365,-0.51031 -1.447017,-0.74689 0.211095,-0.76594 0.407945,-2.19778 0.106705,-4.2336 -0.292813,-0.12242 -0.587959,-0.23906 -0.885388,-0.3497 -1.685735,1.2589 -2.597632,2.417 -3.044228,3.09315 -0.5198,-0.1565 -1.043728,-0.29954 -1.57089,-0.42936 0.04724,-0.7931 -0.05781,-2.2351 -0.775761,-4.16381 -0.311849,-0.0589 -0.624809,-0.11112 -0.938735,-0.1575 -1.387154,1.58189 -2.038718,2.90422 -2.334946,3.65847 -0.540981,-0.045 -1.083074,-0.0765 -1.625702,-0.0939 -0.118692,-0.7856 -0.521345,-2.1733 -1.624605,-3.91059 -0.317273,0.007 -0.634438,0.0207 -0.951158,0.0406 -1.02795,1.83573 -1.390069,3.2647 -1.523012,4.06406 -0.53852,0.0684 -1.075609,0.15047 -1.609992,0.24628 -0.279433,-0.74373 -0.961452,-2.01788 -2.401819,-3.4878 -0.308748,0.0734 -0.615913,0.15219 -0.921534,0.2376 -0.623822,2.00934 -0.681465,3.48255 -0.64531,4.29208 -0.512504,0.17894 -1.020601,0.37068 -1.523383,0.57552 -0.427961,-0.66939 -1.360043,-1.77394 -3.074536,-2.91229 -0.286902,0.13567 -0.571263,0.27723 -0.852502,0.42422 -0.192426,2.09513 0.05795,3.54796 0.261632,4.33228 -0.464115,0.28157 -0.921067,0.57501 -1.370277,0.8799 -0.557753,-0.56581 -1.699445,-1.45223 -3.613149,-2.20925 -0.252446,0.19234 -0.50088,0.38972 -0.745431,0.59196 0.24738,2.08934 0.79422,3.45799 1.15651,4.18282 -0.39548,0.37186 -0.781237,0.75394 -1.157058,1.14574 -0.66323,-0.43745 -1.964617,-1.06714 -3.993905,-1.40974 z m 7.628248,4.09183 a 22.911909,22.911909 0 0 1 0.326671,-0.27406 l -0.601462,0.60146 a 22.911909,22.911909 0 0 1 0.274791,-0.3274 z m -3.315341,4.35456 a 0.89285902,1.0949394 45 0 0 0.536416,0.37126 l 5.509986,0.94166 2.274657,0.38915 a 0.89285902,1.0949394 45 0 0 1.020949,-0.39098 0.89285902,1.0949394 45 0 0 0.320097,-0.95006 l -0.94166,-5.50999 -0.389153,-2.27466 a 0.89285902,1.0949394 45 0 0 -0.01573,-0.0741 0.89285902,1.0949394 45 0 0 -0.0223,-0.0713 0.89285902,1.0949394 45 0 0 -0.02846,-0.0679 0.89285902,1.0949394 45 0 0 -0.03436,-0.0643 0.89285902,1.0949394 45 0 0 -0.04055,-0.0603 0.89285902,1.0949394 45 0 0 -0.04532,-0.0555 0.89285902,1.0949394 45 0 0 -0.05112,-0.0511 0.89285902,1.0949394 45 0 0 -0.03252,-0.0267 22.911909,22.911909 0 0 1 16.807291,-2.49135 1.0949394,0.89285902 27 0 0 -0.0285,0.34787 l 0.807548,5.53154 0.332889,2.28343 a 1.0949394,0.89285902 27 0 0 0.686961,0.84994 1.0949394,0.89285902 27 0 0 1.002678,0.011 l 4.949085,-2.59805 2.042991,-1.0732 a 1.0949394,0.89285902 27 0 0 0.137778,-0.091 22.911909,22.911909 0 0 1 0.917909,0.77029 22.911909,22.911909 0 0 1 6.618626,14.17671 0.89285902,1.0949394 9 0 0 -0.08621,0.0366 l -5.010892,2.47704 -2.069305,1.02204 a 0.89285902,1.0949394 9 0 0 -0.595614,0.91644 0.89285902,1.0949394 9 0 0 0.2989,0.95664 l 4.000845,3.90438 1.651646,1.61145 a 0.89285902,1.0949394 9 0 0 0.03105,0.0274 22.911909,22.911909 0 0 1 -4.839094,7.27343 22.911909,22.911909 0 0 1 -6.878795,4.69513 0.89285902,1.0949394 81 0 0 -0.131914,-0.17723 l -3.904022,-4.00049 -1.611814,-1.652 a 0.89285902,1.0949394 81 0 0 -1.055639,-0.28388 0.89285902,1.0949394 81 0 0 -0.817417,0.58063 l -2.476733,5.01119 -1.022404,2.06895 a 0.89285902,1.0949394 81 0 0 -0.08003,0.38184 22.911909,22.911909 0 0 1 -14.423731,-6.62374 22.911909,22.911909 0 0 1 -0.815953,-0.97235 1.0949394,0.89285902 63 0 0 0.42751,-0.37418 l 2.59805,-4.94909 1.073198,-2.04299 a 1.0949394,0.89285902 63 0 0 -0.05627,-1.09183 1.0949394,0.89285902 63 0 0 -0.804629,-0.59781 l -5.531176,-0.80719 -2.284161,-0.33289 a 1.0949394,0.89285902 63 0 0 -0.657005,0.21559 22.911909,22.911909 0 0 1 2.735442,-17.09523 z m 4.651267,-3.30877 a 1.6439037,1.6439037 0 0 1 2.324725,1e-5 1.6439037,1.6439037 0 0 1 2e-6,2.32472 1.6439037,1.6439037 0 0 1 -2.324726,0 1.6439037,1.6439037 0 0 1 -1e-6,-2.32473 z m -5.992678,24.58536 0.405964,0.79622 a 22.911909,22.911909 0 0 1 -0.405964,-0.79622 z m 2.404382,-1.59318 a 1.6439037,1.6439037 0 0 1 0.353696,-0.24337 1.6439037,1.6439037 0 0 1 2.210713,0.71838 1.6439037,1.6439037 0 0 1 -0.718025,2.21109 1.6439037,1.6439037 0 0 1 -2.211446,-0.7184 1.6439037,1.6439037 0 0 1 0.365042,-1.96771 z m 26.580845,-26.58084 a 1.6439037,1.6439037 0 0 1 1.967351,-0.36467 1.6439037,1.6439037 0 0 1 0.718757,2.21107 1.6439037,1.6439037 0 0 1 -2.21108,0.71804 1.6439037,1.6439037 0 0 1 -0.718391,-2.21072 1.6439037,1.6439037 0 0 1 0.243385,-0.35369 z m -5.878313,37.26609 a 1.6439037,1.6439037 0 0 1 0.935078,-0.4922 1.6439037,1.6439037 0 0 1 1.880747,1.36698 1.6439037,1.6439037 0 0 1 -1.366623,1.88039 1.6439037,1.6439037 0 0 1 -1.880751,-1.36626 1.6439037,1.6439037 0 0 1 0.431549,-1.38891 z M 93.89868,137.25354 a 1.6439037,1.6439037 0 0 1 1.38855,-0.43118 1.6439037,1.6439037 0 0 1 1.366622,1.88039 1.6439037,1.6439037 0 0 1 -1.880756,1.36698 1.6439037,1.6439037 0 0 1 -1.366617,-1.88111 1.6439037,1.6439037 0 0 1 0.492201,-0.93508 z" />
    </g>
  </g>
</svg>
