<?xml version='1.0' encoding='utf-8'?>
<!DOCTYPE svg PUBLIC '-//W3C//DTD SVG 1.1//EN' 'http://www.w3.org/Graphics/SVG/1.1/DTD/svg11.dtd'>
<svg version="1.1" xmlns="http://www.w3.org/2000/svg" viewBox="0 0 512 512" xmlns:xlink="http://www.w3.org/1999/xlink" enable-background="new 0 0 512 512">
  <g>
    <g>
      <path d="m500,113.1c-2.4-7.5-8.9-13-16.8-14.1l-55.2-7.9-24.6-48.9c-3.5-7-10.7-11.4-18.5-11.4-7.8,0-15,4.4-18.5,11.4l-24.6,48.9-55.2,7.9c-7.8,1.1-14.3,6.6-16.8,14.1-2.4,7.5-0.3,15.8 5.4,21.3l39.7,37.9-9.4,53.4c-1.4,7.7 1.8,15.6 8.1,20.2 6.3,4.7 14.7,5.3 21.7,1.7l49.5-25.5 49.5,25.5c3,1.5 6.2,2.3 9.5,2.3 4.3,0 8.6-1.4 12.2-4 6.3-4.6 9.5-12.5 8.1-20.2l-9.4-53.4 39.7-37.9c5.9-5.5 8-13.8 5.6-21.3zm-81.6,36.9c-5,4.8-7.3,11.7-6.1,18.5l4.1,23.3-22-11.3c-5.9-3-13-3-18.9,0l-22,11.3 4.1-23.3c1.2-6.8-1.1-13.7-6.1-18.5l-16.9-16.2 23.8-3.4c6.7-1 12.5-5.1 15.5-11.2l11-21.9 11,21.9c3,6 8.8,10.2 15.5,11.2l23.8,3.4-16.8,16.2z"/>
      <path d="m442,361c-14.9,3.4-30.3,5.1-45.7,5.1-113.8,0-206.4-92.6-206.4-206.3 0-41.8 12.4-82 35.9-116.3 4.8-7 4.8-16.3 0-23.4-4.8-7.1-13.4-10.5-21.8-8.6-54,12.2-103,42.7-138,86-35.4,43.8-55,99.2-55,155.7 0,66.2 25.8,128.4 72.6,175.2 46.8,46.8 109.1,72.6 175.3,72.6 81.9,0 158.4-40.4 204.8-108.1 4.8-7 4.8-16.3 0-23.4-4.8-7-13.4-10.4-21.7-8.5zm-183.1,98.5c-113.8,0-206.4-92.6-206.4-206.3 0-78.2 45.3-149.1 112.8-183.8-11.2,28.6-17,59.1-17,90.4 0,66.2 25.8,128.4 72.6,175.2 46.7,46.7 108.8,72.5 174.9,72.6-37.3,33.1-85.8,51.9-136.9,51.9z"/>
    </g>
  </g>
</svg>
